<svg width="359" height="289" viewBox="0 0 359 289" fill="none" xmlns="http://www.w3.org/2000/svg">
<g clip-path="url(#clip0_801_1034)">
<path d="M143.059 218.238L144.713 215.521C143.512 214.753 141.004 212.523 135.901 206.283C129.691 198.7 123.107 189.433 123.042 189.337C117.803 183.961 123.042 173.727 123.1 173.623L143.591 141.081C143.857 140.668 144.209 140.616 144.461 140.616C144.648 140.624 145.101 140.697 145.367 141.207C150.728 151.463 140.35 166.749 140.242 166.904C135.894 174.967 136.691 187.638 144.655 193.162C147.322 195.008 150.585 196.197 154.933 196.905C169.078 199.231 179.881 193.952 191.309 188.392C195.248 186.472 199.316 184.485 203.571 182.817C212.253 179.398 221.309 178.999 229.791 181.665C234.319 183.09 238.797 185.467 244.324 189.374C246.43 190.865 248.478 192.423 250.534 193.989C253.761 196.448 257.096 198.98 260.596 201.203C266.425 204.902 273.009 207.11 279.377 209.244C280.922 209.761 282.468 210.278 283.991 210.817L286.608 211.755C290 212.981 293.5 214.251 297.159 215.041L297.799 211.91C294.341 211.164 291.085 209.99 287.635 208.742L284.991 207.79C283.452 207.251 281.893 206.726 280.333 206.202C274.145 204.127 267.741 201.978 262.228 198.478C258.835 196.329 255.558 193.834 252.381 191.419C250.304 189.839 248.219 188.251 246.092 186.745C242.491 184.197 236.978 180.579 230.704 178.615C221.561 175.735 211.793 176.171 202.471 179.833C198.101 181.546 193.983 183.562 189.986 185.504C179.011 190.85 168.661 195.894 155.429 193.752C151.548 193.117 148.68 192.091 146.409 190.511C140.026 186.08 139.279 175.292 142.887 168.602C143.275 168.063 154.38 151.685 148.119 139.693C147.408 138.335 146.093 137.485 144.598 137.426C143.11 137.441 141.787 138.083 140.989 139.346L120.433 172.006C120.103 172.626 113.993 184.581 120.699 191.426C120.699 191.419 120.699 191.419 120.699 191.419C120.678 191.419 127.283 200.716 133.529 208.351C137.892 213.682 141.011 216.924 143.059 218.238Z" fill="#A98C64"/>
<path d="M124.581 233.317L126.737 231.013C124.523 228.827 122.324 226.627 120.117 224.434L116.222 220.549C114.331 218.666 112.427 216.791 110.515 214.93C108.739 213.202 106.878 211.526 105.024 209.857C101.696 206.867 98.2601 203.773 95.3779 200.376C91.008 195.222 89.0386 189.891 89.3764 184.094C89.6855 178.755 91.5039 173.121 94.9395 166.859C102.105 153.834 110.831 141.643 119.154 130.271C119.319 130.05 119.542 130.035 119.643 130.057C119.758 130.072 119.966 130.138 120.06 130.404C123.129 138.77 122.712 147.447 118.91 154.21L118.68 154.617C114.123 162.739 109.818 170.404 109.25 180.092C108.862 186.642 112.908 190.134 116.825 193.509L133.105 207.834L135.132 205.405L118.823 191.057C115.05 187.801 112.067 185.231 112.355 180.284C112.879 171.349 117.012 164.002 121.382 156.219L121.612 155.813C125.882 148.215 126.37 138.541 122.971 129.282C122.503 128.004 121.397 127.096 120.088 126.897C118.788 126.705 117.472 127.266 116.674 128.351C108.287 139.804 99.4892 152.099 92.237 165.287C88.557 171.984 86.6092 178.076 86.2714 183.902C85.8905 190.489 88.1689 196.736 93.0348 202.473C96.0607 206.04 99.5754 209.2 102.975 212.257C104.808 213.904 106.634 215.543 108.38 217.249C110.285 219.102 112.182 220.97 114.065 222.846L117.954 226.723C120.153 228.93 122.36 231.131 124.581 233.317Z" fill="#A98C64"/>
<path d="M133.63 262.233C137.238 262.233 141.018 261.479 144.864 259.944C149.183 258.386 153.568 256.835 157.945 255.292C165.046 252.781 172.147 250.27 179.205 247.627C189.663 243.713 201.523 239.275 213.547 238.692C231.315 237.791 248.356 245.109 264.83 252.153L265.671 252.515C269.868 254.302 274.044 256.082 278.191 257.699L279.291 254.708C275.173 253.098 271.033 251.341 266.864 249.561L266.023 249.207C249.24 242.022 231.918 234.579 213.396 235.502C200.89 236.115 188.801 240.641 178.135 244.629C171.091 247.265 164.004 249.768 156.924 252.271C152.54 253.822 148.156 255.373 143.778 256.953C133.572 261.022 124.343 259.176 117.76 251.769C114.676 248.306 111.629 244.799 108.581 241.291C100.258 231.707 91.6476 221.797 82.383 212.84L81.8511 212.323C79.7236 210.271 77.7111 208.329 76.2233 205.988C72.6152 200.309 73.1974 193.885 73.8227 187.077C73.9377 185.807 74.0527 184.544 74.1461 183.274L78.6024 119.557C78.6455 118.981 79.0695 118.722 79.1989 118.663C79.393 118.567 79.7667 118.449 80.1477 118.722C90.6198 126.114 90.4761 138.814 90.3323 151.094L90.246 169.451L93.3582 169.466L93.4445 151.124C93.5882 138.615 93.7464 124.43 81.9086 116.071C80.6939 115.229 79.1845 115.111 77.8477 115.768C76.5036 116.433 75.6052 117.792 75.4974 119.313L71.0411 183.031C70.9549 184.271 70.8399 185.519 70.7249 186.759C70.078 193.811 69.4096 201.099 73.6142 207.716C75.3105 210.381 77.553 212.545 79.7236 214.635L80.2555 215.151C89.4123 224.012 97.9798 233.87 106.26 243.403C109.314 246.918 112.369 250.44 115.46 253.911C120.347 259.405 126.665 262.233 133.63 262.233Z" fill="#A98C64"/>
<path d="M122.755 263.953C125.515 263.953 128.253 263.421 130.898 262.122L129.554 259.242C121.871 263.03 112.484 258.829 104.937 255.439L104.384 255.196C98.0373 252.065 91.3673 249.214 84.9201 246.453C82.0164 245.212 79.1126 243.972 76.2305 242.702C74.4336 241.911 72.608 241.217 70.7752 240.531C68.3817 239.622 65.9021 238.692 63.5661 237.533C59.3687 235.45 55.2143 232.977 51.2109 230.186C45.5112 226.22 40.0343 221.679 34.73 217.285C31.1722 214.339 27.6216 211.4 23.9775 208.594L3.62978 192.91C3.25603 192.622 3.05478 192.135 3.11228 191.618C3.14103 191.397 3.27041 190.835 3.87415 190.577C12.4847 186.87 20.9875 190.555 28.8794 195.104C34.3275 198.242 39.7397 201.646 44.9578 205.227C46.7475 206.453 48.494 207.767 50.2334 209.089C53.4318 211.496 56.7309 213.985 60.303 215.919C65.1761 218.57 69.9917 220.121 74.6133 220.542C77.3733 220.786 80.1908 220.616 82.9076 220.438C84.0289 220.365 85.1501 220.291 86.257 220.254L86.142 217.057C85.0064 217.101 83.8636 217.175 82.7136 217.241C80.1117 217.404 77.4236 217.581 74.8792 217.344C70.6746 216.968 66.2543 215.535 61.7477 213.091C58.384 211.26 55.1784 208.838 52.0734 206.505C50.2837 205.161 48.5012 203.817 46.6756 202.569C41.3856 198.951 35.9087 195.495 30.3959 192.32C21.8213 187.38 12.5279 183.385 2.66666 187.638C1.20761 188.266 0.215714 189.61 0.0216522 191.242C-0.179596 192.881 0.496033 194.513 1.78259 195.502L22.1088 211.164C25.7241 213.948 29.2459 216.865 32.775 219.789C38.1297 224.219 43.664 228.805 49.4571 232.851C53.5899 235.731 57.8809 238.286 62.2077 240.435C64.6802 241.66 67.2389 242.62 69.7043 243.558C71.4796 244.23 73.2549 244.895 75.0014 245.663C77.8908 246.933 80.8017 248.181 83.7126 249.429C90.1239 252.168 96.7579 255.011 103.076 258.127L103.672 258.4C109.429 260.933 116.15 263.953 122.755 263.953Z" fill="#A98C64"/>
<path d="M61.9056 216.429L64.4643 214.613C63.8965 213.763 64.5434 211.644 65.4274 210.743C67.0158 209.111 70.1855 209.54 72.4352 209.998L73.0461 210.108C73.7433 210.234 75.5905 210.574 75.9786 210.994L78.2427 208.794C77.2364 207.701 75.4683 207.302 73.5996 206.955L73.0533 206.852C70.0993 206.254 65.8802 205.766 63.2352 208.476C61.6181 210.138 60.2165 213.919 61.9056 216.429Z" fill="#A98C64"/>
<path d="M297.051 215.041C292.609 214.029 288.361 212.397 284.063 210.869C282.144 210.189 282.971 207.036 284.904 207.723C289.195 209.244 293.443 210.876 297.892 211.895C299.883 212.346 299.042 215.491 297.051 215.041Z" fill="#A98C64"/>
<path d="M266.698 249.458C270.838 251.223 274.978 252.98 279.169 254.627C281.059 255.366 280.24 258.519 278.328 257.773C274.145 256.126 269.997 254.376 265.857 252.604C263.996 251.814 264.808 248.653 266.698 249.458Z" fill="#A98C64"/>
<path d="M135.836 206.165C138.481 209.377 141.234 213.128 144.691 215.476C146.387 216.628 144.799 219.449 143.088 218.29C139.372 215.772 136.432 211.932 133.586 208.469C132.278 206.874 134.513 204.563 135.836 206.165Z" fill="#A98C64"/>
<path d="M116.264 220.549C119.772 224.035 123.265 227.542 126.78 231.02C128.253 232.475 126.011 234.779 124.537 233.324C121.015 229.853 117.522 226.346 114.022 222.853C112.548 221.391 114.791 219.087 116.264 220.549Z" fill="#A98C64"/>
<path d="M165.118 139.494C166.218 139.494 167.159 138.777 167.468 137.685C170.537 126.874 176.014 107.69 177.912 101.414C181.124 103.452 188.183 107.351 192.323 109.603C193.3 110.134 194.493 109.942 195.262 109.123C196.031 108.31 196.168 107.092 195.622 106.103C193.343 102.041 188.096 92.6339 185.998 88.4693C188.693 88.041 193.02 87.2583 193.02 87.2583C196.225 86.734 199.841 86.0695 203.456 85.4049L218.384 81.5504C219.52 81.2624 220.282 80.2138 220.246 79.0102C220.21 77.814 219.376 76.8245 218.233 76.603L186.378 70.4816C186.033 70.3265 185.573 69.8761 185.329 69.2779C185.085 68.6651 185.099 67.9931 185.379 67.3876L188.333 60.9191C188.571 60.2988 190.957 54.8863 193.084 50.1161C193.523 49.1193 193.314 48.0043 192.56 47.2511C191.805 46.4905 190.691 46.3133 189.749 46.7933L175.209 54.0445C174.706 51.5782 173.865 47.0369 172.895 41.809L172.499 39.7045C172.147 37.8659 170.559 29.1452 168.223 16.2377C168.014 15.0711 167.094 14.244 165.952 14.1776C164.794 14.1037 163.788 14.82 163.443 15.9572L151.843 53.8303L135.951 42.9166C135.074 42.3037 133.91 42.348 133.069 43.02C132.228 43.6919 131.897 44.8365 132.257 45.8703L140.393 69.7653C140.616 70.452 140.537 71.2126 140.177 71.8329C139.818 72.4384 139.236 72.8445 138.524 72.9626L113.224 77.334C112.038 77.5408 111.197 78.5376 111.169 79.7708C111.147 81.0039 111.945 82.0451 113.117 82.3035L144.777 89.3111L136.08 105.268C135.585 106.191 135.678 107.306 136.325 108.118C136.972 108.923 138 109.233 138.977 108.923L155.559 103.533L162.703 137.493C162.94 138.644 163.874 139.449 165.032 139.501C165.053 139.494 165.082 139.494 165.118 139.494ZM177.538 97.8398C177.265 97.8398 176.992 97.8914 176.726 97.9874C176 98.2533 175.439 98.844 175.202 99.6046C173.7 104.456 168.51 122.606 165.197 134.266L158.434 102.152C158.29 101.451 157.859 100.852 157.262 100.491C156.665 100.136 155.939 100.055 155.285 100.269L139.581 105.379L147.904 90.1012C148.285 89.3997 148.321 88.5505 148.005 87.8195C147.681 87.0885 147.034 86.5494 146.272 86.387L117.055 79.9185L139.027 76.1157C140.616 75.8498 142.003 74.8899 142.83 73.4869C143.67 72.0618 143.843 70.3339 143.325 68.7315L135.815 46.6899L150.815 56.9981C151.462 57.4486 152.267 57.5519 153 57.2861C153.733 57.0203 154.308 56.4148 154.538 55.6468L161.567 32.4828L161.682 32.6379L162.494 29.699L165.621 19.4646C168.417 34.9048 169.222 39.3279 169.56 40.7235L169.509 40.7383L169.819 42.4145C170.918 48.3513 171.86 53.4021 172.327 55.5878C172.499 56.3483 172.981 56.976 173.671 57.3083C174.361 57.6406 175.144 57.6406 175.827 57.2935L189.483 50.4853C188.111 53.5867 185.595 59.2577 185.458 59.6712L182.548 66.0289C181.901 67.4393 181.865 69.0638 182.44 70.5037C183.015 71.9215 184.143 73.0365 185.552 73.5534L214.762 79.1874L202.852 82.2666C199.302 82.9164 195.708 83.5736 192.495 84.1053C192.466 84.1127 187.083 85.08 184.653 85.4418C183.877 85.5526 183.187 86.0473 182.821 86.7636C182.454 87.4724 182.447 88.3364 182.799 89.06C184.316 92.2352 188.988 100.66 191.791 105.689C187.298 103.223 181.139 99.7818 178.882 98.2533C178.479 97.9874 178.012 97.8398 177.538 97.8398ZM135.175 44.8069C135.182 44.8069 135.182 44.8143 135.175 44.8069V44.8069Z" fill="#A98C64"/>
<path d="M222.229 289C241.262 289 269.343 278.78 297.878 260.106C341.527 231.566 367.301 195.635 356.57 178.319C348.312 165.006 320.971 166.837 286.895 182.971C284.329 184.19 281.734 185.482 279.125 186.848L280.541 189.698C283.114 188.347 285.666 187.077 288.196 185.881C320.274 170.692 346.688 168.351 353.94 180.04C363.413 195.31 336.977 230.754 296.21 257.418C255.443 284.09 213.008 293.704 203.535 278.426C201.573 275.251 201.098 271.145 202.14 266.205C202.608 263.99 203.384 261.605 204.448 259.124L201.594 257.839C200.451 260.512 199.61 263.104 199.1 265.533C197.885 271.322 198.489 276.233 200.911 280.147C204.627 286.135 212.16 289 222.229 289Z" fill="#A98C64"/>
<path d="M288.347 185.829C285.753 187.062 283.187 188.347 280.635 189.676C278.817 190.629 277.207 187.815 279.032 186.863C281.584 185.534 284.15 184.249 286.744 183.016C288.592 182.137 290.202 184.95 288.347 185.829Z" fill="#A98C64"/>
<path d="M204.39 259.301C203.441 261.568 202.687 263.894 202.148 266.301C201.695 268.347 198.633 267.483 199.086 265.437C199.682 262.749 200.588 260.195 201.644 257.662C202.449 255.734 205.188 257.396 204.39 259.301Z" fill="#A98C64"/>
<path d="M234.65 149.853C235.656 149.853 236.533 149.189 236.82 148.199L238.761 141.517C239.76 138.098 242.34 135.447 245.668 134.421L252.166 132.419C253.129 132.131 253.783 131.231 253.783 130.189C253.783 129.148 253.129 128.255 252.158 127.959L245.675 125.958C242.347 124.939 239.767 122.288 238.768 118.862L236.827 112.187C236.245 110.201 233.076 110.201 232.486 112.18V112.187L230.546 118.862C229.547 122.281 226.966 124.932 223.638 125.958L217.141 127.959C216.178 128.247 215.524 129.148 215.524 130.189C215.524 131.231 216.178 132.124 217.141 132.419L223.638 134.421C226.966 135.44 229.547 138.09 230.546 141.517L232.486 148.192C232.774 149.189 233.643 149.853 234.65 149.853ZM248.55 130.204L244.777 131.364C240.443 132.693 237.072 136.148 235.778 140.601L234.65 144.485L233.521 140.601C232.227 136.141 228.864 132.685 224.53 131.364L220.749 130.204L224.53 129.045C228.864 127.716 232.227 124.26 233.521 119.807L234.65 115.923L235.778 119.807C237.072 124.267 240.443 127.723 244.777 129.045L248.55 130.204ZM251.26 131.031L251.267 131.039C251.267 131.039 251.267 131.031 251.26 131.031ZM218.025 129.362C218.032 129.362 218.032 129.362 218.025 129.362V129.362ZM251.274 129.362H251.267C251.274 129.362 251.274 129.362 251.274 129.362Z" fill="#A98C64"/>
<path d="M87.7736 39.1432C88.7799 39.1432 89.6567 38.4786 89.9442 37.4891L91.8848 30.8065C92.8839 27.3876 95.4642 24.7293 98.792 23.7103L105.289 21.7166C106.253 21.4286 106.907 20.5352 106.907 19.494C106.914 18.4602 106.26 17.5594 105.289 17.2566L98.792 15.2629C95.4642 14.2439 92.8839 11.593 91.8848 8.16674L89.9442 1.49149C89.3621 -0.494839 86.1924 -0.502223 85.603 1.48411V1.49149L83.6624 8.16674C82.6633 11.5856 80.083 14.2365 76.7552 15.2629L70.2577 17.2566C69.2874 17.5594 68.6406 18.4528 68.6406 19.494C68.6406 20.5352 69.2946 21.4286 70.2649 21.7166L76.7552 23.7103C80.083 24.7293 82.6633 27.3876 83.6624 30.8065L85.603 37.4817C85.8977 38.4786 86.7746 39.1432 87.7736 39.1432ZM101.681 19.4866L97.9008 20.6459C93.5667 21.9751 90.203 25.4308 88.9092 29.8908L87.7808 33.7749L86.6524 29.8908C85.3586 25.4308 81.9949 21.9751 77.6609 20.6459L73.8802 19.4866L77.6609 18.3273C81.9949 16.9982 85.3586 13.5424 86.6524 9.08976L87.7808 5.20571L88.9092 9.08976C90.203 13.5498 93.5667 17.0055 97.9008 18.3273L101.681 19.4866ZM71.1562 18.6522C71.1562 18.6522 71.1634 18.6522 71.1634 18.6596L71.1562 18.6522ZM104.405 18.6522H104.398C104.405 18.6522 104.405 18.6522 104.405 18.6522Z" fill="#A98C64"/>
<path d="M75.9928 99.3466C78.8031 99.3466 81.4049 97.6631 82.6196 95.0638C83.1012 94.0374 83.3384 92.9446 83.3384 91.8001H80.2262C80.2262 92.4646 80.0896 93.0923 79.8093 93.6756C79.0978 95.2041 77.6315 96.1493 75.9856 96.1493C73.6496 96.1493 71.7521 94.1999 71.7521 91.7927C71.7521 88.8243 74.9362 86.6459 77.5956 87.7683L78.7671 84.8073C77.8831 84.4381 76.9415 84.2461 75.9856 84.2461C71.9318 84.2461 68.64 87.628 68.64 91.7927C68.6471 95.9573 71.939 99.3466 75.9928 99.3466Z" fill="#A98C64"/>
<path d="M79.6877 93.9336C79.9896 93.1878 80.1549 92.6192 80.198 91.7922C80.313 89.7025 83.4899 89.6951 83.3749 91.7922C83.3174 92.8555 83.1521 93.8081 82.7496 94.7976C81.9805 96.7101 78.9043 95.8683 79.6877 93.9336Z" fill="#A98C64"/>
<path d="M77.7684 87.8563C77.2078 87.6126 76.6113 87.4797 76.0003 87.4723C73.9734 87.3394 73.9591 84.0756 76.0003 84.2085C76.9203 84.2676 77.7325 84.4005 78.6166 84.7107C80.5356 85.3752 79.7091 88.5282 77.7684 87.8563Z" fill="#A98C64"/>
<path d="M238.107 64.9214C240.917 64.9214 243.519 63.2378 244.734 60.6386C245.215 59.6122 245.459 58.5193 245.459 57.3748H242.347C242.347 58.032 242.204 58.6596 241.93 59.2503C241.226 60.7493 239.731 61.724 238.107 61.724C235.771 61.724 233.873 59.7746 233.873 57.3748C233.873 54.4063 237.036 52.2206 239.709 53.343L240.881 50.382C239.997 50.0128 239.055 49.8208 238.099 49.8208C234.046 49.8208 230.754 53.2101 230.754 57.3748C230.754 61.5394 234.053 64.9214 238.107 64.9214Z" fill="#A98C64"/>
<path d="M241.801 59.5083C242.103 58.7625 242.268 58.194 242.311 57.3669C242.426 55.2772 245.603 55.2698 245.488 57.3669C245.431 58.4302 245.265 59.3828 244.863 60.3723C244.087 62.2848 241.018 61.4503 241.801 59.5083Z" fill="#A98C64"/>
<path d="M239.875 53.4388C239.314 53.1951 238.717 53.0622 238.107 53.0548C236.08 52.9219 236.065 49.6581 238.107 49.7911C239.026 49.8501 239.839 49.983 240.723 50.2932C242.649 50.9578 241.822 54.1108 239.875 53.4388Z" fill="#A98C64"/>
</g>
<defs>
<clipPath id="clip0_801_1034">
<rect width="359" height="289" fill="white" transform="matrix(-1 0 0 1 359 0)"/>
</clipPath>
</defs>
</svg>
