<?xml version="1.0" encoding="UTF-8"?>
<svg xmlns="http://www.w3.org/2000/svg" id="Layer_1" data-name="Layer 1" viewBox="0 0 24 24">
  <path d="M20.464,4.593c-.093-.022-1.429-.331-3.418-.584l-.658-2.01c-.113-.346-.405-.603-.764-.671-.069-.013-1.743-.328-3.624-.328s-3.555,.314-3.625,.328c-.357,.068-.649,.326-.763,.671l-.658,2.011c-1.988,.253-3.324,.561-3.417,.583-.538,.125-.872,.663-.746,1.201,.107,.461,.519,.773,.973,.773,.062,0,.125-.006,.188-.018-.159,1.586-.291,3.728-.291,5.758,0,5.111,.833,8.865,.868,9.022,.08,.353,.344,.636,.69,.739,.129,.038,3.18,.932,6.781,.932s6.651-.894,6.78-.932c.348-.104,.613-.387,.691-.742,.036-.159,.868-3.952,.868-9.02,0-2.038-.131-4.177-.289-5.757,.516,.099,1.035-.231,1.158-.755,.126-.538-.208-1.076-.745-1.202Zm-2.828,15.708c-1.005,.244-3.204,.699-5.636,.699s-4.632-.456-5.638-.7c-.227-1.225-.702-4.247-.702-7.994,0-2.21,.169-4.614,.344-6.139,1.492-.234,3.665-.492,5.996-.492s4.508,.257,5.999,.491c.173,1.518,.341,3.918,.341,6.139,0,3.709-.478,6.759-.704,7.995Z"/>
  <path d="M9.681,8.731c-.553,0-1,.448-1,1v7.66c0,.552,.447,1,1,1s1-.448,1-1v-7.66c0-.552-.447-1-1-1Z"/>
  <path d="M14.319,8.731c-.553,0-1,.448-1,1v7.66c0,.552,.447,1,1,1s1-.448,1-1v-7.66c0-.552-.447-1-1-1Z"/>
</svg>
